<svg id="undraw_make_it_rain_iwk4" xmlns="http://www.w3.org/2000/svg" xmlns:xlink="http://www.w3.org/1999/xlink" width="841.893" height="617.637" viewBox="0 0 841.893 617.637">
  <defs>
    <linearGradient id="linear-gradient" x1="0.5" y1="1" x2="0.5" gradientUnits="objectBoundingBox">
      <stop offset="0" stop-color="gray" stop-opacity="0.251"/>
      <stop offset="0.54" stop-color="gray" stop-opacity="0.122"/>
      <stop offset="1" stop-color="gray" stop-opacity="0.102"/>
    </linearGradient>
    <linearGradient id="linear-gradient-2" x1="9.926" x2="9.926" y2="0" xlink:href="#linear-gradient"/>
  </defs>
  <path id="Path_22" data-name="Path 22" d="M231,419.071c-11.073,3.345-21.436,11.444-24.2,22.681-3.164,12.914,4.132,25.931,5.186,39.19,3.406,43.443-58.4,74.094-49.58,116.768,3.5,16.968,17.65,29.449,31.593,39.761,22.335,16.466,47.117,31.014,74.56,35.119,41.654,6.241,85.175-12.1,125.662-.51,32.656,9.352,57.645,36.762,90.076,46.875,24.686,7.7,51.283,4.668,76.929,1.547,13.83-1.677,28.317-3.613,39.476-11.911,20.745-15.446,22.05-45.95,35.94-67.81,21.454-33.71,68.493-40.331,107.934-33.779s77.741,22.681,117.7,21.367c8.54-.285,17.287-1.443,24.738-5.636,9.059-5.091,15.178-14.063,20.589-22.94a371.2,371.2,0,0,0,53.824-184.448c.233-11.194-.164-22.871-5.428-32.751-6.656-12.5-19.958-19.976-33.2-25.006-31.8-12.1-66.928-14.081-98.089-27.729-30.054-13.164-54.395-36.252-80.568-56.037A429.15,429.15,0,0,0,567.387,195.1c-15.031-2.9-30.633-4.979-45.57-1.625-17.21,3.864-32.042,14.591-45.379,26.139-35.482,30.72-63.92,68.622-96.619,102.289a550.076,550.076,0,0,1-73.4,63.3c-12.1,8.721-24.963,19.077-38.447,25.525C255.627,416.624,244.053,415.138,231,419.071Z" transform="translate(-119.584 -106.169)" fill="#2de38e" opacity="0.2"/>
  <path id="Path_23" data-name="Path 23" d="M416.852,138.88s-33.408,44.368-9.508,96.083S365.69,369.77,365.69,369.77" transform="translate(-147.273 -98.997)" fill="none" stroke="#535461" stroke-miterlimit="10" stroke-width="2"/>
  <path id="Path_24" data-name="Path 24" d="M438.82,116.017c-2.654,11.418-15.351,18.221-15.351,18.221s-8.384-11.712-5.731-23.131,9.508-19.578,15.351-18.221S441.474,104.6,438.82,116.017Z" transform="translate(-154.262 -92.739)" fill="#8ed16f"/>
  <ellipse id="Ellipse_5" data-name="Ellipse 5" cx="6.664" cy="2.498" rx="6.664" ry="2.498" transform="translate(269.654 26.645) rotate(-76.9)" fill="#8ed16f"/>
  <ellipse id="Ellipse_6" data-name="Ellipse 6" cx="6.664" cy="2.498" rx="6.664" ry="2.498" transform="translate(269.654 26.645) rotate(-76.9)" opacity="0.3"/>
  <path id="Path_25" data-name="Path 25" d="M431.82,174.808c-11.029,3.976-23.641-2.991-23.641-2.991s5.273-13.406,16.311-17.374,21.609-2.593,23.641,2.991S442.85,170.832,431.82,174.808Z" transform="translate(-153.036 -100.8)" fill="#8ed16f"/>
  <ellipse id="Ellipse_7" data-name="Ellipse 7" cx="6.664" cy="2.498" rx="6.664" ry="2.498" transform="matrix(0.94, -0.34, 0.34, 0.94, 267.724, 62.774)" fill="#8ed16f"/>
  <ellipse id="Ellipse_8" data-name="Ellipse 8" cx="6.664" cy="2.498" rx="6.664" ry="2.498" transform="matrix(0.94, -0.34, 0.34, 0.94, 267.724, 62.774)" opacity="0.3"/>
  <path id="Path_26" data-name="Path 26" d="M428.85,221.578c-11.029,3.976-23.64-2.991-23.64-2.991s5.273-13.406,16.311-17.374,21.609-2.593,23.641,2.991S439.88,217.611,428.85,221.578Z" transform="translate(-152.633 -107.144)" fill="#8ed16f"/>
  <ellipse id="Ellipse_9" data-name="Ellipse 9" cx="6.664" cy="2.498" rx="6.664" ry="2.498" transform="translate(265.285 103.798) rotate(-19.8)" fill="#8ed16f"/>
  <ellipse id="Ellipse_10" data-name="Ellipse 10" cx="6.664" cy="2.498" rx="6.664" ry="2.498" transform="translate(265.285 103.798) rotate(-19.8)" opacity="0.3"/>
  <path id="Path_27" data-name="Path 27" d="M443.76,276.448c-11.029,3.976-23.641-2.991-23.641-2.991s5.273-13.406,16.311-17.374,21.609-2.593,23.641,2.991S454.79,272.5,443.76,276.448Z" transform="translate(-154.655 -114.586)" fill="#8ed16f"/>
  <ellipse id="Ellipse_11" data-name="Ellipse 11" cx="6.664" cy="2.498" rx="6.664" ry="2.498" transform="translate(278.175 151.247) rotate(-19.8)" fill="#8ed16f"/>
  <ellipse id="Ellipse_12" data-name="Ellipse 12" cx="6.664" cy="2.498" rx="6.664" ry="2.498" transform="translate(278.175 151.247) rotate(-19.8)" opacity="0.3"/>
  <path id="Path_28" data-name="Path 28" d="M434.06,326.628c-11.029,3.976-23.64-2.991-23.64-2.991s5.273-13.406,16.311-17.374,21.609-2.593,23.641,2.991S445.1,322.661,434.06,326.628Z" transform="translate(-153.339 -121.392)" fill="#8ed16f"/>
  <ellipse id="Ellipse_13" data-name="Ellipse 13" cx="6.664" cy="2.498" rx="6.664" ry="2.498" transform="matrix(0.94, -0.34, 0.34, 0.94, 269.813, 193.897)" fill="#8ed16f"/>
  <ellipse id="Ellipse_14" data-name="Ellipse 14" cx="6.664" cy="2.498" rx="6.664" ry="2.498" transform="matrix(0.94, -0.34, 0.34, 0.94, 269.813, 193.897)" opacity="0.3"/>
  <path id="Path_29" data-name="Path 29" d="M376.525,187.8c8.142,8.436,22.534,7.779,22.534,7.779s1.184-14.357-6.958-22.793-18.23-11.911-22.534-7.779S368.382,179.364,376.525,187.8Z" transform="translate(-147.536 -102.305)" fill="#8ed16f"/>
  <ellipse id="Ellipse_15" data-name="Ellipse 15" cx="2.498" cy="6.664" rx="2.498" ry="6.664" transform="matrix(0.719, -0.695, 0.695, 0.719, 230.66, 74.648)" fill="#8ed16f"/>
  <ellipse id="Ellipse_16" data-name="Ellipse 16" cx="2.498" cy="6.664" rx="2.498" ry="6.664" transform="matrix(0.719, -0.695, 0.695, 0.719, 230.66, 74.648)" opacity="0.3"/>
  <path id="Path_30" data-name="Path 30" d="M371.115,342.79c8.142,8.436,22.534,7.779,22.534,7.779s1.184-14.357-6.958-22.793-18.23-11.911-22.534-7.779S362.972,334.354,371.115,342.79Z" transform="translate(-146.802 -123.327)" fill="#8ed16f"/>
  <ellipse id="Ellipse_17" data-name="Ellipse 17" cx="2.498" cy="6.664" rx="2.498" ry="6.664" transform="matrix(0.719, -0.695, 0.695, 0.719, 225.971, 208.628)" fill="#8ed16f"/>
  <ellipse id="Ellipse_18" data-name="Ellipse 18" cx="2.498" cy="6.664" rx="2.498" ry="6.664" transform="matrix(0.719, -0.695, 0.695, 0.719, 225.971, 208.628)" opacity="0.3"/>
  <path id="Path_31" data-name="Path 31" d="M382.683,242.781c10.493,5.238,23.831-.207,23.831-.207s-3.674-13.925-14.158-19.163-21.16-5.186-23.831.207S372.189,237.543,382.683,242.781Z" transform="translate(-147.574 -109.936)" fill="#8ed16f"/>
  <ellipse id="Ellipse_19" data-name="Ellipse 19" cx="2.498" cy="6.664" rx="2.498" ry="6.664" transform="translate(233.035 122.035) rotate(-63.48)" fill="#8ed16f"/>
  <ellipse id="Ellipse_20" data-name="Ellipse 20" cx="2.498" cy="6.664" rx="2.498" ry="6.664" transform="translate(233.035 122.035) rotate(-63.48)" opacity="0.3"/>
  <path id="Path_32" data-name="Path 32" d="M387.773,297.351c10.493,5.238,23.831-.207,23.831-.207s-3.674-13.925-14.158-19.163-21.16-5.186-23.831.207S377.323,292.165,387.773,297.351Z" transform="translate(-148.265 -117.337)" fill="#8ed16f"/>
  <ellipse id="Ellipse_21" data-name="Ellipse 21" cx="2.498" cy="6.664" rx="2.498" ry="6.664" transform="translate(237.438 169.21) rotate(-63.48)" fill="#8ed16f"/>
  <ellipse id="Ellipse_22" data-name="Ellipse 22" cx="2.498" cy="6.664" rx="2.498" ry="6.664" transform="translate(237.438 169.21) rotate(-63.48)" opacity="0.3"/>
  <path id="Path_33" data-name="Path 33" d="M228.662,249.21s61.016,61.016,26.571,151.558,59.045,241.107,59.045,241.107-1-.147-2.861-.475c-125.333-22.119-187.568-165.449-117.9-271.922C219.387,329.89,240.694,283.456,228.662,249.21Z" transform="translate(-119.985 -113.962)" fill="#8ed16f"/>
  <path id="Path_34" data-name="Path 34" d="M113,534.6s69.625-11.09,75.969,51.309S322.851,656.96,322.851,656.96s-.864.57-2.394,1.59c-105.306,69.149-205.97,44.031-190.8-47.756C135.309,576.661,134.843,542.388,113,534.6Z" transform="translate(-113 -152.566)" fill="#8ed16f"/>
  <g id="Group_9" data-name="Group 9" transform="translate(0 381.271)" opacity="0.3">
    <path id="Path_35" data-name="Path 35" d="M113,534.6s69.625-11.09,75.969,51.309S322.851,656.96,322.851,656.96s-.864.57-2.394,1.59c-105.306,69.149-205.97,44.031-190.8-47.756C135.309,576.661,134.843,542.388,113,534.6Z" transform="translate(-113 -533.838)" fill="#fff"/>
  </g>
  <ellipse id="Ellipse_23" data-name="Ellipse 23" cx="19.146" cy="49.952" rx="19.146" ry="49.952" transform="translate(71.907 281.361)" fill="#8ed16f"/>
  <ellipse id="Ellipse_24" data-name="Ellipse 24" cx="19.146" cy="49.952" rx="19.146" ry="49.952" transform="translate(71.907 281.361)" opacity="0.3"/>
  <ellipse id="Ellipse_25" data-name="Ellipse 25" cx="12.905" cy="28.723" rx="12.905" ry="28.723" transform="translate(39.56 481.234) rotate(-45)" fill="#8ed16f"/>
  <ellipse id="Ellipse_26" data-name="Ellipse 26" cx="12.905" cy="28.723" rx="12.905" ry="28.723" transform="translate(39.56 481.234) rotate(-45)" opacity="0.3"/>
  <path id="Path_36" data-name="Path 36" d="M762.533,358.2H309.31a20.65,20.65,0,0,0-20.65,20.65V644.5a20.65,20.65,0,0,0,20.65,20.65H762.533a20.65,20.65,0,0,0,20.65-20.65V378.85a20.65,20.65,0,0,0-20.65-20.65Z" transform="translate(-136.825 -128.744)" fill="url(#linear-gradient)"/>
  <rect id="Rectangle_24" data-name="Rectangle 24" width="482.88" height="299.72" rx="24.81" transform="translate(157.652 233.069)" fill="#2de38e"/>
  <rect id="Rectangle_25" data-name="Rectangle 25" width="482.88" height="54.948" transform="translate(157.652 285.519)" fill="#2de38e"/>
  <rect id="Rectangle_26" data-name="Rectangle 26" width="482.88" height="54.948" transform="translate(157.652 285.519)" opacity="0.3"/>
  <rect id="Rectangle_27" data-name="Rectangle 27" width="391.3" height="26.64" transform="translate(203.446 381.265)" fill="#d6d6e3"/>
  <circle id="Ellipse_27" data-name="Ellipse 27" cx="38.3" cy="38.3" r="38.3" transform="translate(197.612 436.213)" fill="#2de38e"/>
  <circle id="Ellipse_28" data-name="Ellipse 28" cx="38.3" cy="38.3" r="38.3" transform="translate(197.612 436.213)" opacity="0.3"/>
  <path id="Path_37" data-name="Path 37" d="M822.258,267.207a8.384,8.384,0,0,0,3.691,4.668c7.944,5.247,25.214,4.132,27.288,4.132.441,0,1.02.787,1.66,2.109,3.051,6.293,7.779,24.738,8.1,28.887.424,5.022,5.091,28.524,12.732,37.28.233.268.467.519.692.752,7.494,7.529,16.285-.752,16.285-.752l1.262-4.382c-.354,1.729-.752,3.743-1.15,6-.2,1.132-.4,2.334-.588,3.57a136.789,136.789,0,0,0-1.789,21.065,76.4,76.4,0,0,0,.328,7.676c.069.709.147,1.409.242,2.092a73.3,73.3,0,0,1,.57,9.37c-.069,18.6-4.815,41.74-4.815,41.74l.182-.061c-.112.579-.182.864-.182.864l.277-.086q-.2,1.288-.38,2.636c-1.608,11.669-2.533,26.19-2.973,34.575a69.228,69.228,0,0,0,.588,13.242l8.436,59.391v27.66a48.831,48.831,0,0,0,1.521,12.43c2.749,10.45.484,46.927-.787,64.231-.354,4.719-.631,8.021-.709,8.972v.285l.242-.1v.3a4.889,4.889,0,0,1,1.124-.328c-3.345,5.186-9.4,13.761-14.063,15.2a14.755,14.755,0,0,0-7.027,4.659l-.121.164-.173.242a5.186,5.186,0,0,0-1.011,2.645,2.924,2.924,0,0,1-.155-.51c-.354,1.928.8,3.691,4.443,4.547a29.912,29.912,0,0,0,6.44.518c12.62,0,35.016-3.881,37.488-8.056v-14.4l.406.13v.13l1.547.51,4.244-14.245c5.091-3.769.864-71.215,0-86.713-.778-14.124,7.961-70.308,9.508-80.2l-.208-.251.233-1.443a6.13,6.13,0,0,1,.865.761,11.3,11.3,0,0,1,1.322,1.953,26.121,26.121,0,0,1,1.876,3.872c8.54,21.3,12.386,82.2,12.386,87.664v57.273a59.64,59.64,0,0,0,2.334,16.708,71.656,71.656,0,0,1,1.815,8.7c.181,1.15.337,2.291.484,3.38s.294,2.334.406,3.354a6.954,6.954,0,0,0,.086.769,1.52,1.52,0,0,1,0,.354c.233,2.256.354,3.734.354,3.734a.864.864,0,0,1,.173-.337l.043.545a1.167,1.167,0,0,1,.337-.536,8.188,8.188,0,0,1,1.141-.934v7.278l-.207-.156v1.253c8.8,6.638,23.122,8.644,34.117,8.566,7.131,0,12.905-.864,14.91-1.867,2.87-1.409,1.3-4.694-1.314-7.209-2.023-1.953-4.659-3.458-6.327-3.267-2.783.3-12.3-10.476-17.287-16.38l.562-.251.8-.346v-95.5s1.279-37.7,5.091-74.993a132.664,132.664,0,0,0-6.526-55.631l-.121-.354,1.158.181c1.227.19,1.884.3,1.884.3a7.193,7.193,0,0,0-.078-.864h.078s-1.487-16.172-1.5-36.485c0-23.027,1.945-51.1,9.992-66.989,4.633-9.145,6.18-16.423,6.051-22.162a23.182,23.182,0,0,0-4.14-14.176,11.236,11.236,0,0,0-4.763-3.769l-.164-.1H991.4a11.842,11.842,0,0,0-4.374-.864H969.641a11.608,11.608,0,0,1-5.739-1.513l-6.8-3.855c-2.265-4.953-2.593-11.09-2.109-16.847,0-.458.086-.916.13-1.366l.493-.519c.38-.406.735-.864,1.08-1.253a9.6,9.6,0,0,1-.078,1.02c-.086.545-.234.864-.467.934,3.717-.484,7.866-1.219,10.148-4.089.1-.112.182-.233.268-.354a18.527,18.527,0,0,0,1.668-3.457,10.04,10.04,0,0,1,1.271-2.317c.57-.743,1.314-1.348,1.927-2.057l.1-.121c2.187-2.593,2.308-6.31,2.334-9.7.043-8.229-.2-17.287-5.7-23.459-4.573-5.134-11.868-7.079-18.791-7.3s-13.83,1.02-20.745,1.055c-4.7,0-10.372-.078-12.965,3.812-1.271,1.91-1.426,4.408-2.809,6.241-.8,1.055-2.014,1.962-2.083,3.276a3.362,3.362,0,0,0,.449,1.729v.061c1.677,3.3,5.238,5.359,8.955,6.007a22.31,22.31,0,0,0-1.729,2.386,22.716,22.716,0,0,0-3.457,12.1,14.155,14.155,0,0,0,.052,1.487,22.845,22.845,0,0,0,7.243,15.222c-.069.484-.138.968-.216,1.443l.156.138q.735.666,1.53,1.262l.19.147v.864a14.5,14.5,0,0,1-.052,1.5c-.052.493,0,.8-.052,1.193l-.112-.1-8.445-7.053L901.7,245.8s-33.952-24.712-35.655-12.966a8.462,8.462,0,0,0,1.616,5.86c6.232,9.508,27.66,17.6,27.66,17.6s12.775,13.51,21.324,28.075c-.3.164-.605.32-.925.467-7.607,3.535-18.705,2.04-18.705,2.04-12.819,2-13.977,16.043-13.908,21.722v1.176L866.1,269.826l-.052-.121a8.41,8.41,0,0,0-6.362-5C848.31,262.8,819.881,258.814,822.258,267.207Zm71.215,388.1a7.4,7.4,0,0,1,.752-.138l-.078.121Z" transform="translate(-209.179 -108.041)" fill="url(#linear-gradient-2)"/>
  <path id="Path_38" data-name="Path 38" d="M999.821,716.43s16.112,20.252,19.837,19.837,12.395,7.849,7.442,10.372-33.468,4.132-47.54-6.612v-16.19Z" transform="translate(-230.533 -177.331)" fill="#aca9c9"/>
  <path id="Path_39" data-name="Path 39" d="M905.011,717.86S895.5,734.8,888.9,736.876s-12.4,9.508-3.717,11.574,39.675-2.481,42.561-7.442V719.1Z" transform="translate(-217.137 -177.525)" fill="#aca9c9"/>
  <path id="Path_40" data-name="Path 40" d="M894.893,515.1l8.211,58.587v27.236a48.82,48.82,0,0,0,1.487,12.257c2.68,10.312.475,46.287-.769,63.358-.406,5.566-.717,9.128-.717,9.128,5.368-2.481,28.1,5.368,28.1,5.368l2.3-7.823,1.832-6.223c4.961-3.717.864-70.247,0-85.572-.562-10.468,4.106-44.4,7.1-64.741.864-5.748,1.564-10.372,1.988-13.156.268-1.729.415-2.688.415-2.688a9.05,9.05,0,0,1,2.23,2.688,25.87,25.87,0,0,1,1.824,3.82c8.315,21.013,12.1,81.086,12.1,86.437v56.5a59.573,59.573,0,0,0,2.273,16.484,86.436,86.436,0,0,1,2.239,11.9c.588,4.486.864,8.1.864,8.1.415-2.481,26.035-13.64,26.035-13.64V588.9s1.236-37.168,4.961-73.973a131.969,131.969,0,0,0-4.754-49.77c-1.029-3.518-2.057-6.5-2.947-8.86-1.513-4.019-2.593-6.241-2.593-6.241h-84.4c-1.418.268-2.593,3.12-3.656,7.451-.691,2.9-1.3,6.465-1.824,10.372-1.564,11.5-2.463,25.827-2.9,34.108a69.036,69.036,0,0,0,.6,13.113Z" transform="translate(-218.957 -141.203)" fill="#618fd8"/>
  <g id="Group_10" data-name="Group 10" transform="translate(684.355 309.116)" opacity="0.1">
    <path id="Path_41" data-name="Path 41" d="M1002.244,683.428V589.212s1.236-37.168,4.961-73.973-10.372-64.88-10.372-64.88h1.651s14.046,28.1,10.372,64.88-4.961,73.973-4.961,73.973v94.216s-25.62,11.159-26.035,13.64a12.377,12.377,0,0,0-.13-1.5C983.314,691.683,1002.244,683.428,1002.244,683.428Z" transform="translate(-914.64 -450.36)"/>
    <path id="Path_42" data-name="Path 42" d="M907.013,722.337a6.413,6.413,0,0,0-2.273.467v-.415a14.756,14.756,0,0,1,2.273-.052Z" transform="translate(-904.74 -487.246)"/>
    <path id="Path_43" data-name="Path 43" d="M939.5,686.769c4.961-3.717.864-70.247,0-85.573S949,520.62,949,520.62a7.209,7.209,0,0,1,1.426,1.469c-1.521,9.75-10.027,65.182-9.275,79.107.864,15.291,4.961,81.821,0,85.573l-4.132,14.046-1.5-.5Z" transform="translate(-908.915 -459.889)"/>
  </g>
  <path id="Path_44" data-name="Path 44" d="M902.388,324.13l-8.644,30.581s-9.093,8.644-16.527,0-12.015-31.817-12.464-36.779-7.027-30.581-9.508-30.581-27.271,1.651-30.166-8.644c-2.317-8.281,25.361-4.322,36.442-2.463a8.212,8.212,0,0,1,6.2,4.927l16.993,40.582S893.709,311.32,902.388,324.13Z" transform="translate(-209.562 -117.277)" fill="#f7c4a7"/>
  <path id="Path_45" data-name="Path 45" d="M971.881,249.82s-10.744,30.166,2.9,40.911S926,304.37,926,304.37l8.471-8.056s5.99-23.761,1.858-43.6Z" transform="translate(-223.268 -114.044)" fill="#f7c4a7"/>
  <path id="Path_46" data-name="Path 46" d="M954.262,296.275s10.952-2.688,10.952-5.575l9.707,5.575H999.3s17.771,9.914,2.9,39.674-8.263,102.86-8.263,102.86-52.891-9.508-96.7,4.961c0,0,6.612-32.647,4.132-51.24S905.5,347.9,905.5,347.9L909.22,332.2s-.207-14.694-15.5-7.235c0,0-2.273-21.281,13.432-23.761,0,0,18.152,2.481,23.554-6.612C930.708,294.624,942.7,301.652,954.262,296.275Z" transform="translate(-218.875 -119.589)" opacity="0.1"/>
  <path id="Path_47" data-name="Path 47" d="M954.262,295.325s10.952-2.688,10.952-5.575l7.114,4.088a11.237,11.237,0,0,0,5.584,1.487h17.054a11.237,11.237,0,0,1,9.136,4.65c3.915,5.506,7.425,16.362-1.9,35.024-14.876,29.752-8.263,102.86-8.263,102.86s-52.891-9.508-96.7,4.961c0,0,6.612-32.647,4.132-51.24s4.132-44.567,4.132-44.567l3.717-15.706s-.207-14.694-15.5-7.235c0,0-2.213-20.693,12.784-23.649a4.235,4.235,0,0,1,1.271-.086c3.207.337,18.152,1.418,22.94-6.682C930.708,293.666,942.7,300.693,954.262,295.325Z" transform="translate(-218.875 -119.46)" fill="#e14b5a"/>
  <path id="Path_48" data-name="Path 48" d="M1001.629,334.6s-13.225,8.263-34.713,0c0,0-23.554-8.644-31-25.62s37.6,2.9,37.6,2.9,9.508,0,12.4-2.066S1009.063,325.51,1001.629,334.6Z" transform="translate(-224.501 -121.138)" opacity="0.1"/>
  <path id="Path_49" data-name="Path 49" d="M993.383,324.069s-13.225,8.263-34.713,0c0,0-23.554-8.644-31-25.62s-24.79-35.569-24.79-35.569-30.167-11.574-28.524-23.139,34.713,12.81,34.713,12.81l13.225,12.4,42.976,36.364s9.508,0,12.4-2.066S1000.817,314.976,993.383,324.069Z" transform="translate(-216.256 -112.255)" fill="#f7c4a7"/>
  <path id="Path_50" data-name="Path 50" d="M937.49,254.146l35.534-2.9a81.561,81.561,0,0,0-3.708,16.829,22.707,22.707,0,0,1-31.809.864,40.39,40.39,0,0,0-.017-14.8Z" transform="translate(-224.827 -114.238)" opacity="0.1"/>
  <circle id="Ellipse_29" data-name="Ellipse 29" cx="22.724" cy="22.724" r="22.724" transform="translate(705.852 114.089)" fill="#f7c4a7"/>
  <path id="Path_51" data-name="Path 51" d="M964.157,250.409c-1.331-2.2,1.374-5.057.484-7.46-.821-2.213-4.089-2.593-5.186-4.659-.864-1.668,0-3.717-.346-5.558-.493-2.377-3.051-3.855-5.48-3.976s-4.771.787-7.079,1.565c-3.76,1.271-7.719,2.247-11.66,1.8s-7.874-2.593-9.629-6.111a3.458,3.458,0,0,1-.441-1.677c.069-1.3,1.262-2.187,2.031-3.224,1.348-1.807,1.5-4.27,2.731-6.154,2.507-3.838,8.013-3.743,12.594-3.76,6.742,0,13.45-1.262,20.192-1.037s13.83,2.135,18.3,7.2c5.359,6.094,5.6,15.014,5.558,23.139,0,3.345-.138,6.984-2.273,9.569-.622.752-1.383,1.374-1.979,2.144-1.3,1.729-1.642,3.942-2.861,5.7-2.161,3.12-6.379,3.881-10.139,4.382,1.106-.147.19-7.555,0-8.237C968.246,250.643,967.459,250.712,964.157,250.409Z" transform="translate(-223.108 -108.661)" opacity="0.1"/>
  <path id="Path_52" data-name="Path 52" d="M964.157,249.459c-1.331-2.2,1.374-5.057.484-7.46-.821-2.213-4.089-2.593-5.186-4.659-.864-1.668,0-3.717-.346-5.558-.493-2.377-3.051-3.855-5.48-3.976s-4.771.787-7.079,1.565c-3.76,1.271-7.719,2.247-11.66,1.8s-7.874-2.593-9.629-6.111a3.458,3.458,0,0,1-.441-1.677c.069-1.3,1.262-2.187,2.031-3.224,1.348-1.807,1.5-4.27,2.731-6.154,2.507-3.838,8.013-3.743,12.594-3.76,6.742,0,13.45-1.262,20.192-1.037s13.83,2.135,18.3,7.2c5.359,6.094,5.6,15.014,5.558,23.139,0,3.345-.138,6.984-2.273,9.569-.622.752-1.383,1.374-1.979,2.144-1.3,1.729-1.642,3.942-2.861,5.7-2.161,3.12-6.379,3.881-10.139,4.382,1.106-.147.19-7.555,0-8.237C968.246,249.65,967.459,249.753,964.157,249.459Z" transform="translate(-223.108 -108.532)" fill="#281c1c"/>
  <path id="Path_53" data-name="Path 53" d="M1008.432,336.174s-11.159-28.93-19.837-29.752,16.527,0,16.527,0l8.263,14.876Z" transform="translate(-231.511 -121.672)" opacity="0.1"/>
  <path id="Path_54" data-name="Path 54" d="M1009.392,336.174s-11.159-28.93-19.837-29.752,16.527,0,16.527,0l8.263,14.876Z" transform="translate(-231.642 -121.672)" fill="#e14b5a"/>
  <path id="Path_55" data-name="Path 55" d="M976.65,724.255c.588,4.486.864,8.1.864,8.1.415-2.481,26.035-13.64,26.035-13.64V712a11.387,11.387,0,0,0-1.954.1c-4.97.666-9.577,3.077-13.83,5.653a126.18,126.18,0,0,1-11.116,6.509Z" transform="translate(-230.138 -176.729)" fill="#618fd8"/>
  <path id="Path_56" data-name="Path 56" d="M976.65,724.255c.588,4.486.864,8.1.864,8.1.415-2.481,26.035-13.64,26.035-13.64V712a11.387,11.387,0,0,0-1.954.1c-4.97.666-9.577,3.077-13.83,5.653a126.18,126.18,0,0,1-11.116,6.509Z" transform="translate(-230.138 -176.729)" opacity="0.3"/>
  <path id="Path_57" data-name="Path 57" d="M904.5,721.123c5.368-2.481,28.1,5.368,28.1,5.368l2.3-7.823c-3.967-.8-7.909-1.807-11.781-3a39.186,39.186,0,0,1-5.29-1.953,35.44,35.44,0,0,0-3.527-1.642c-2.965-1.02-6.05-.588-9.093-.078C904.811,717.561,904.5,721.123,904.5,721.123Z" transform="translate(-220.352 -176.656)" fill="#618fd8"/>
  <path id="Path_58" data-name="Path 58" d="M904.5,721.123c5.368-2.481,28.1,5.368,28.1,5.368l2.3-7.823c-3.967-.8-7.909-1.807-11.781-3a39.186,39.186,0,0,1-5.29-1.953,35.44,35.44,0,0,0-3.527-1.642c-2.965-1.02-6.05-.588-9.093-.078C904.811,717.561,904.5,721.123,904.5,721.123Z" transform="translate(-220.352 -176.656)" opacity="0.3"/>
  <path id="Path_59" data-name="Path 59" d="M1026.84,748.852a2.472,2.472,0,0,0,1.417-1.642,2.429,2.429,0,0,1-1.417,2.878c-4.962,2.481-33.468,4.132-47.54-6.612V742.24C993.372,752.984,1021.879,751.333,1026.84,748.852Z" transform="translate(-230.498 -180.832)" fill="#fff" opacity="0.4"/>
  <path id="Path_60" data-name="Path 60" d="M884.932,750.632c8.644,2.066,39.675-2.481,42.562-7.442v1.236c-2.9,4.962-33.883,9.508-42.562,7.442-3.544-.864-4.676-2.593-4.322-4.486C880.887,748.782,882.183,749.941,884.932,750.632Z" transform="translate(-217.104 -180.961)" fill="#fff" opacity="0.4"/>
  <path id="Path_61" data-name="Path 61" d="M938.408,403.328s-9.093-2.9-11.574,0-23.684,9.681-23.684,9.681" transform="translate(-220.169 -134.69)" opacity="0.1"/>
  <rect id="Rectangle_28" data-name="Rectangle 28" width="44.212" height="0.934" transform="translate(659.565 155.094) rotate(180)" fill="#8ed16f"/>
  <rect id="Rectangle_29" data-name="Rectangle 29" width="44.212" height="0.934" transform="translate(659.565 156.028) rotate(180)" fill="#8ed16f"/>
  <rect id="Rectangle_30" data-name="Rectangle 30" width="44.212" height="0.934" transform="translate(659.565 156.028) rotate(180)" opacity="0.1"/>
  <rect id="Rectangle_31" data-name="Rectangle 31" width="44.212" height="0.934" transform="translate(659.565 156.961) rotate(180)" fill="#8ed16f"/>
  <rect id="Rectangle_32" data-name="Rectangle 32" width="44.212" height="0.934" transform="translate(659.565 157.886) rotate(180)" fill="#8ed16f"/>
  <rect id="Rectangle_33" data-name="Rectangle 33" width="44.212" height="0.934" transform="translate(659.565 157.886) rotate(180)" opacity="0.1"/>
  <rect id="Rectangle_34" data-name="Rectangle 34" width="44.212" height="0.934" transform="translate(659.565 158.82) rotate(180)" fill="#8ed16f"/>
  <rect id="Rectangle_35" data-name="Rectangle 35" width="44.212" height="0.934" transform="translate(659.565 159.745) rotate(180)" fill="#8ed16f"/>
  <rect id="Rectangle_36" data-name="Rectangle 36" width="44.212" height="0.934" transform="translate(659.565 159.745) rotate(180)" opacity="0.1"/>
  <rect id="Rectangle_37" data-name="Rectangle 37" width="44.212" height="0.934" transform="translate(659.565 160.678) rotate(180)" fill="#8ed16f"/>
  <rect id="Rectangle_38" data-name="Rectangle 38" width="44.212" height="0.934" transform="translate(659.565 161.603) rotate(180)" fill="#8ed16f"/>
  <rect id="Rectangle_39" data-name="Rectangle 39" width="44.212" height="0.934" transform="translate(659.565 161.603) rotate(180)" opacity="0.1"/>
  <rect id="Rectangle_40" data-name="Rectangle 40" width="44.212" height="0.934" transform="translate(659.565 147.661) rotate(180)" fill="#8ed16f"/>
  <rect id="Rectangle_41" data-name="Rectangle 41" width="44.212" height="0.934" transform="matrix(-0.769, -0.639, 0.639, -0.769, 680.619, 153.83)" fill="#8ed16f"/>
  <rect id="Rectangle_42" data-name="Rectangle 42" width="44.212" height="0.934" transform="matrix(-0.769, -0.639, 0.639, -0.769, 649.628, 138.956)" fill="#8ed16f"/>
  <rect id="Rectangle_43" data-name="Rectangle 43" width="44.212" height="0.934" transform="translate(659.565 148.586) rotate(180)" fill="#8ed16f"/>
  <rect id="Rectangle_44" data-name="Rectangle 44" width="44.212" height="0.934" transform="translate(659.565 148.586) rotate(180)" opacity="0.1"/>
  <rect id="Rectangle_45" data-name="Rectangle 45" width="44.212" height="0.934" transform="translate(659.565 149.528) rotate(180)" fill="#8ed16f"/>
  <rect id="Rectangle_46" data-name="Rectangle 46" width="44.212" height="0.934" transform="translate(659.565 150.453) rotate(180)" fill="#8ed16f"/>
  <rect id="Rectangle_47" data-name="Rectangle 47" width="44.212" height="0.934" transform="translate(659.565 150.453) rotate(180)" opacity="0.1"/>
  <rect id="Rectangle_48" data-name="Rectangle 48" width="44.212" height="0.934" transform="translate(659.565 151.377) rotate(180)" fill="#8ed16f"/>
  <rect id="Rectangle_49" data-name="Rectangle 49" width="44.212" height="0.934" transform="translate(659.565 152.311) rotate(180)" fill="#8ed16f"/>
  <rect id="Rectangle_50" data-name="Rectangle 50" width="44.212" height="0.934" transform="translate(659.565 152.311) rotate(180)" opacity="0.1"/>
  <rect id="Rectangle_51" data-name="Rectangle 51" width="44.212" height="0.934" transform="translate(659.565 153.236) rotate(180)" fill="#8ed16f"/>
  <rect id="Rectangle_52" data-name="Rectangle 52" width="44.212" height="0.934" transform="translate(659.565 154.169) rotate(180)" fill="#8ed16f"/>
  <rect id="Rectangle_53" data-name="Rectangle 53" width="44.212" height="0.934" transform="translate(659.565 154.169) rotate(180)" opacity="0.1"/>
  <rect id="Rectangle_54" data-name="Rectangle 54" width="16.112" height="31.403" transform="translate(625.591 193.356) rotate(-169.48)" fill="#8ed16f"/>
  <ellipse id="Ellipse_30" data-name="Ellipse 30" cx="6.612" cy="3.302" rx="6.612" ry="3.302" transform="translate(616.303 182.446) rotate(-79.48)" fill="#8ed16f"/>
  <ellipse id="Ellipse_31" data-name="Ellipse 31" cx="6.612" cy="3.302" rx="6.612" ry="3.302" transform="translate(616.303 182.446) rotate(-79.48)" opacity="0.1"/>
  <rect id="Rectangle_55" data-name="Rectangle 55" width="16.112" height="31.403" transform="translate(628.301 258.524) rotate(-169.48)" fill="#8ed16f"/>
  <ellipse id="Ellipse_32" data-name="Ellipse 32" cx="6.612" cy="3.302" rx="6.612" ry="3.302" transform="translate(619.005 247.607) rotate(-79.48)" fill="#8ed16f"/>
  <ellipse id="Ellipse_33" data-name="Ellipse 33" cx="6.612" cy="3.302" rx="6.612" ry="3.302" transform="translate(619.005 247.607) rotate(-79.48)" opacity="0.1"/>
  <rect id="Rectangle_56" data-name="Rectangle 56" width="16.112" height="31.403" transform="matrix(0.476, -0.879, 0.879, 0.476, 547.494, 109.573)" fill="#8ed16f"/>
  <ellipse id="Ellipse_34" data-name="Ellipse 34" cx="3.31" cy="6.628" rx="3.31" ry="6.628" transform="translate(560.424 110.299) rotate(-61.39)" fill="#8ed16f"/>
  <ellipse id="Ellipse_35" data-name="Ellipse 35" cx="3.31" cy="6.628" rx="3.31" ry="6.628" transform="translate(560.424 110.299) rotate(-61.39)" opacity="0.1"/>
  <rect id="Rectangle_57" data-name="Rectangle 57" width="16.112" height="31.403" transform="matrix(0.476, -0.879, 0.879, 0.476, 486.852, 389.216)" fill="#8ed16f"/>
  <ellipse id="Ellipse_36" data-name="Ellipse 36" cx="3.302" cy="6.612" rx="3.302" ry="6.612" transform="matrix(0.476, -0.879, 0.879, 0.476, 497.019, 389.55)" fill="#8ed16f"/>
  <ellipse id="Ellipse_37" data-name="Ellipse 37" cx="3.302" cy="6.612" rx="3.302" ry="6.612" transform="matrix(0.476, -0.879, 0.879, 0.476, 497.019, 389.55)" opacity="0.1"/>
  <rect id="Rectangle_58" data-name="Rectangle 58" width="16.112" height="31.403" transform="matrix(0.476, -0.879, 0.879, 0.476, 449.75, 158.445)" fill="#8ed16f"/>
  <ellipse id="Ellipse_38" data-name="Ellipse 38" cx="3.302" cy="6.612" rx="3.302" ry="6.612" transform="matrix(0.476, -0.879, 0.879, 0.476, 459.909, 158.766)" fill="#8ed16f"/>
  <ellipse id="Ellipse_39" data-name="Ellipse 39" cx="3.302" cy="6.612" rx="3.302" ry="6.612" transform="matrix(0.476, -0.879, 0.879, 0.476, 459.909, 158.766)" opacity="0.1"/>
  <rect id="Rectangle_59" data-name="Rectangle 59" width="16.112" height="31.403" transform="matrix(0.476, -0.879, 0.879, 0.476, 496.252, 109.569)" fill="#8ed16f"/>
  <ellipse id="Ellipse_40" data-name="Ellipse 40" cx="3.302" cy="6.612" rx="3.302" ry="6.612" transform="matrix(0.476, -0.879, 0.879, 0.476, 506.411, 109.89)" fill="#8ed16f"/>
  <ellipse id="Ellipse_41" data-name="Ellipse 41" cx="3.302" cy="6.612" rx="3.302" ry="6.612" transform="matrix(0.476, -0.879, 0.879, 0.476, 506.411, 109.89)" opacity="0.1"/>
  <rect id="Rectangle_60" data-name="Rectangle 60" width="16.112" height="31.403" transform="matrix(0.994, -0.109, 0.109, 0.994, 534.335, 154.823)" fill="#8ed16f"/>
  <ellipse id="Ellipse_42" data-name="Ellipse 42" cx="3.302" cy="6.612" rx="3.302" ry="6.612" transform="matrix(0.994, -0.109, 0.109, 0.994, 539.837, 163.368)" fill="#8ed16f"/>
  <ellipse id="Ellipse_43" data-name="Ellipse 43" cx="3.302" cy="6.612" rx="3.302" ry="6.612" transform="matrix(0.994, -0.109, 0.109, 0.994, 539.837, 163.368)" opacity="0.1"/>
  <rect id="Rectangle_61" data-name="Rectangle 61" width="16.112" height="31.403" transform="matrix(0.994, -0.109, 0.109, 0.994, 644.145, 325.76)" fill="#8ed16f"/>
  <ellipse id="Ellipse_44" data-name="Ellipse 44" cx="3.302" cy="6.612" rx="3.302" ry="6.612" transform="matrix(0.994, -0.109, 0.109, 0.994, 649.655, 334.305)" fill="#8ed16f"/>
  <ellipse id="Ellipse_45" data-name="Ellipse 45" cx="3.302" cy="6.612" rx="3.302" ry="6.612" transform="matrix(0.994, -0.109, 0.109, 0.994, 649.655, 334.305)" opacity="0.1"/>
  <rect id="Rectangle_62" data-name="Rectangle 62" width="16.112" height="31.403" transform="matrix(0.476, -0.879, 0.879, 0.476, 479.964, 233.551)" fill="#8ed16f"/>
  <ellipse id="Ellipse_46" data-name="Ellipse 46" cx="3.302" cy="6.612" rx="3.302" ry="6.612" transform="matrix(0.476, -0.879, 0.879, 0.476, 490.118, 233.884)" fill="#8ed16f"/>
  <ellipse id="Ellipse_47" data-name="Ellipse 47" cx="3.302" cy="6.612" rx="3.302" ry="6.612" transform="matrix(0.476, -0.879, 0.879, 0.476, 490.118, 233.884)" opacity="0.1"/>
  <rect id="Rectangle_63" data-name="Rectangle 63" width="16.112" height="31.403" transform="matrix(0.476, -0.879, 0.879, 0.476, 410.271, 213.647)" fill="#8ed16f"/>
  <ellipse id="Ellipse_48" data-name="Ellipse 48" cx="3.31" cy="6.628" rx="3.31" ry="6.628" transform="translate(422.705 214.867) rotate(-61.39)" fill="#8ed16f"/>
  <ellipse id="Ellipse_49" data-name="Ellipse 49" cx="3.31" cy="6.628" rx="3.31" ry="6.628" transform="translate(422.705 214.867) rotate(-61.39)" opacity="0.1"/>
  <rect id="Rectangle_64" data-name="Rectangle 64" width="16.112" height="31.403" transform="matrix(0.476, -0.879, 0.879, 0.476, 387.949, 548.768)" fill="#8ed16f"/>
  <ellipse id="Ellipse_50" data-name="Ellipse 50" cx="3.302" cy="6.612" rx="3.302" ry="6.612" transform="matrix(0.476, -0.879, 0.879, 0.476, 398.107, 549.093)" fill="#8ed16f"/>
  <ellipse id="Ellipse_51" data-name="Ellipse 51" cx="3.302" cy="6.612" rx="3.302" ry="6.612" transform="matrix(0.476, -0.879, 0.879, 0.476, 398.107, 549.093)" opacity="0.1"/>
  <rect id="Rectangle_65" data-name="Rectangle 65" width="16.112" height="31.403" transform="translate(372.586 555.904) rotate(-79.49)" fill="#8ed16f"/>
  <rect id="Rectangle_66" data-name="Rectangle 66" width="16.112" height="31.403" transform="translate(372.586 555.904) rotate(-79.49)" opacity="0.05"/>
  <ellipse id="Ellipse_52" data-name="Ellipse 52" cx="3.302" cy="6.612" rx="3.302" ry="6.612" transform="translate(382.358 553.088) rotate(-79.49)" fill="#8ed16f"/>
  <ellipse id="Ellipse_53" data-name="Ellipse 53" cx="3.302" cy="6.612" rx="3.302" ry="6.612" transform="translate(382.358 553.088) rotate(-79.49)" opacity="0.1"/>
  <rect id="Rectangle_67" data-name="Rectangle 67" width="16.112" height="31.403" transform="translate(375.479 565.404) rotate(-79.49)" fill="#8ed16f"/>
  <ellipse id="Ellipse_54" data-name="Ellipse 54" cx="3.302" cy="6.612" rx="3.302" ry="6.612" transform="translate(385.243 562.588) rotate(-79.49)" fill="#8ed16f"/>
  <ellipse id="Ellipse_55" data-name="Ellipse 55" cx="3.302" cy="6.612" rx="3.302" ry="6.612" transform="translate(385.243 562.588) rotate(-79.49)" opacity="0.1"/>
  <rect id="Rectangle_68" data-name="Rectangle 68" width="16.112" height="31.403" transform="matrix(0.476, -0.879, 0.879, 0.476, 420.526, 589.495)" fill="#8ed16f"/>
  <ellipse id="Ellipse_56" data-name="Ellipse 56" cx="3.302" cy="6.612" rx="3.302" ry="6.612" transform="matrix(0.476, -0.879, 0.879, 0.476, 430.693, 589.82)" fill="#8ed16f"/>
  <ellipse id="Ellipse_57" data-name="Ellipse 57" cx="3.302" cy="6.612" rx="3.302" ry="6.612" transform="matrix(0.476, -0.879, 0.879, 0.476, 430.693, 589.82)" opacity="0.1"/>
  <rect id="Rectangle_69" data-name="Rectangle 69" width="16.112" height="31.403" transform="translate(405.17 596.62) rotate(-79.49)" fill="#8ed16f"/>
  <rect id="Rectangle_70" data-name="Rectangle 70" width="16.112" height="31.403" transform="translate(405.17 596.62) rotate(-79.49)" opacity="0.05"/>
  <ellipse id="Ellipse_58" data-name="Ellipse 58" cx="3.302" cy="6.612" rx="3.302" ry="6.612" transform="translate(414.933 593.805) rotate(-79.49)" fill="#8ed16f"/>
  <ellipse id="Ellipse_59" data-name="Ellipse 59" cx="3.302" cy="6.612" rx="3.302" ry="6.612" transform="translate(414.933 593.805) rotate(-79.49)" opacity="0.1"/>
  <rect id="Rectangle_71" data-name="Rectangle 71" width="16.112" height="31.403" transform="translate(408.061 606.131) rotate(-79.49)" fill="#8ed16f"/>
  <ellipse id="Ellipse_60" data-name="Ellipse 60" cx="3.302" cy="6.612" rx="3.302" ry="6.612" transform="translate(417.833 603.315) rotate(-79.49)" fill="#8ed16f"/>
  <ellipse id="Ellipse_61" data-name="Ellipse 61" cx="3.302" cy="6.612" rx="3.302" ry="6.612" transform="translate(417.833 603.315) rotate(-79.49)" opacity="0.1"/>
  <rect id="Rectangle_72" data-name="Rectangle 72" width="16.112" height="31.403" transform="matrix(0.476, -0.879, 0.879, 0.476, 469.405, 563.249)" fill="#8ed16f"/>
  <ellipse id="Ellipse_62" data-name="Ellipse 62" cx="3.302" cy="6.612" rx="3.302" ry="6.612" transform="matrix(0.476, -0.879, 0.879, 0.476, 479.555, 563.57)" fill="#8ed16f"/>
  <ellipse id="Ellipse_63" data-name="Ellipse 63" cx="3.302" cy="6.612" rx="3.302" ry="6.612" transform="matrix(0.476, -0.879, 0.879, 0.476, 479.555, 563.57)" opacity="0.1"/>
  <rect id="Rectangle_73" data-name="Rectangle 73" width="16.112" height="31.403" transform="translate(454.044 570.379) rotate(-79.49)" fill="#8ed16f"/>
  <rect id="Rectangle_74" data-name="Rectangle 74" width="16.112" height="31.403" transform="translate(454.044 570.379) rotate(-79.49)" opacity="0.05"/>
  <ellipse id="Ellipse_64" data-name="Ellipse 64" cx="3.302" cy="6.612" rx="3.302" ry="6.612" transform="translate(463.807 567.563) rotate(-79.49)" fill="#8ed16f"/>
  <ellipse id="Ellipse_65" data-name="Ellipse 65" cx="3.302" cy="6.612" rx="3.302" ry="6.612" transform="translate(463.807 567.563) rotate(-79.49)" opacity="0.1"/>
  <rect id="Rectangle_75" data-name="Rectangle 75" width="16.112" height="31.403" transform="translate(456.935 579.888) rotate(-79.49)" fill="#8ed16f"/>
  <ellipse id="Ellipse_66" data-name="Ellipse 66" cx="3.302" cy="6.612" rx="3.302" ry="6.612" transform="translate(466.707 577.074) rotate(-79.49)" fill="#8ed16f"/>
  <ellipse id="Ellipse_67" data-name="Ellipse 67" cx="3.302" cy="6.612" rx="3.302" ry="6.612" transform="translate(466.707 577.074) rotate(-79.49)" opacity="0.1"/>
</svg>
