<svg xmlns="http://www.w3.org/2000/svg" width="525.969" height="424.067" viewBox="0 0 525.969 424.067">
  <g id="undraw_Savings_re_eq4w" transform="translate(0 0)">
    <path id="Path_1" data-name="Path 1" d="M605.922,675.139a24.72,24.72,0,0,0-14.75-10.214c-5.4-1.216-10.947-1.009-16.434-.967l-69.373.535c-5.941.046-11.638,5.193-11.362,11.362.274,6.117,4.993,11.411,11.362,11.362l60.965-.47c4.791-.037,9.585-.123,14.376-.108,1.076,0,2.147.06,3.222.072.26,0,.448,0,.581-.005.033.01.061.019.1.031.561.154,1.136.26,1.7.406-.2.006.366.357.649.477.039.077.122.213.26.423.193.362.765,1.462.789,1.427a50.954,50.954,0,0,1,2.121,6.67c1.32,5,1.611,6.05,1.8,10.746.24,5.931,5.054,11.644,11.362,11.362,5.95-.266,11.62-5,11.362-11.362C614.221,696.168,612.34,684.128,605.922,675.139Z" transform="translate(-306.286 -299.977)" fill="#e6e6e6"/>
    <path id="Path_2" data-name="Path 2" d="M483.361,634.542c-1.3-7.9-2.581-15.8-3.909-23.689-1.348-8.006-4.1-15.337-10.331-20.592-1.665-1.4-3.391-2.715-5.124-4.021-.61-.459-1.218-.919-1.82-1.389l-.09-.07-.252-.215c-2.6-2.2-5.106-4.493-7.5-6.933q-3.184-3.25-6.089-6.778-.726-.881-1.433-1.778c-.081-.1-.518-.667-.806-1.036-.268-.369-.757-1.035-.839-1.151q-.826-1.169-1.623-2.359a110.872,110.872,0,0,1-9.364-17.125q-.389-.889-.759-1.788l-.266-.73c-.526-1.448-1.052-2.893-1.533-4.358q-1.534-4.666-2.637-9.47-.546-2.372-.982-4.768-.225-1.232-.421-2.47c-.021-.137-.149-1.027-.224-1.53-.055-.505-.159-1.4-.173-1.538q-.125-1.247-.222-2.5-.218-2.812-.295-5.634-.131-5.014.18-10.028c.118-1.878.286-3.751.492-5.621.012-.115.022-.206.031-.289s.027-.178.044-.3c.153-1.033.314-2.065.494-3.094a113.113,113.113,0,0,1,2.655-11.585q.772-2.7,1.678-5.365.4-1.181.833-2.353c-.019.05.839-2.142.851-2.215,3.4-8.045,8.974-15.379,8.982-24.518.005-6.187-5.23-12.115-11.362-11.829a11.806,11.806,0,0,0-11.362,11.829c0,.139,0,.257,0,.372-.057.193-.105.353-.148.5-.664,1.443-1.477,2.814-2.206,4.221-2,3.851-3.7,7.829-5.318,11.865a113.5,113.5,0,0,0-6.057,20.33,129.313,129.313,0,0,0-.687,46.186c4.405,26.852,18.933,52.555,39.13,69.833,1.753,1.5,3.548,2.948,5.361,4.368.75.587,1.506,1.164,2.266,1.737.359.271,1.847,1.444,1.193.876a7.239,7.239,0,0,1,2.362,2.691c.052.2.124.481.221.86.255,1,.5,1.994.7,3.006,1.758,8.842,2.98,17.832,4.448,26.732,1.009,6.115,8.537,10.094,13.977,8.262C481.757,646.959,484.443,641.093,483.361,634.542Z" transform="translate(-280.205 -233.741)" fill="#e6e6e6"/>
    <path id="Path_3" data-name="Path 3" d="M576.812,631.627A18.019,18.019,0,0,1,558.746,613.7v-12.96c-13.57,1.519-60.036,1.167-73.355-.973v13.415a18.066,18.066,0,1,1-36.132,0v-26.34a115.891,115.891,0,0,1,47.778-216.654c3.144-.247,6.306-.371,9.4-.371,10.9,0,60.089,1.684,72.431,5.235l28.141-27.923a2.954,2.954,0,0,1,3.231-.644,2.912,2.912,0,0,1,1.835,2.732v4.44l5.479-5.427a2.947,2.947,0,0,1,3.228-.645,2.913,2.913,0,0,1,1.837,2.733v49.612a115.578,115.578,0,0,1-27.745,190.217V613.7A18.019,18.019,0,0,1,576.812,631.627Zm-16.645-32.5V613.7a16.645,16.645,0,1,0,33.291,0V589.246l.405-.192a115.363,115.363,0,0,0,47.245-41.316,113.85,113.85,0,0,0-19.67-146.966l-.236-.212V350.313a1.493,1.493,0,0,0-.953-1.417,1.526,1.526,0,0,0-1.691.336l-7.9,7.826v-7.845a1.493,1.493,0,0,0-.953-1.417,1.53,1.53,0,0,0-1.694.338l-28.743,28.521-.408-.128c-11.473-3.591-61.435-5.293-72.42-5.293-3.058,0-6.183.123-9.289.367a115.093,115.093,0,0,0-62.659,24.674A113.962,113.962,0,0,0,450.314,585.8l.366.2v27.176a16.646,16.646,0,1,0,33.291,0V598.063l.841.158c11.97,2.252,62.371,2.607,74.552,1.009Z" transform="translate(-276.028 -207.893)" fill="#3f3d56"/>
    <path id="Path_4" data-name="Path 4" d="M482.692,270.449l-78.639,23.633a9.858,9.858,0,0,0,5.674,18.882l68.818-20.686,1.442-.433a47.944,47.944,0,0,1,5.887-21.2,4.377,4.377,0,0,0-1.42-.369A4.521,4.521,0,0,0,482.692,270.449Z" transform="translate(-278.179 -185.861)" fill="#2de38e"/>
    <path id="Path_5" data-name="Path 5" d="M408.96,318.719a4.98,4.98,0,0,1-4.714-3.41l-4.917-14.839a4.97,4.97,0,0,1,3.155-6.282l64-21.211a4.971,4.971,0,0,1,6.282,3.154l4.917,14.839a4.953,4.953,0,0,1-2.978,6.22q-.089.033-.179.063l-64,21.211a4.973,4.973,0,0,1-1.568.255Z" transform="translate(-278.772 -186.578)" fill="#2f2e41"/>
    <path id="Path_6" data-name="Path 6" d="M561.5,233.42A49.731,49.731,0,0,0,511.811,281.6c-.014.5-.021,1.015-.021,1.527A49.708,49.708,0,1,0,561.5,233.42Zm0,98a48.339,48.339,0,0,1-48.288-48.288q0-.991.043-1.96A48.287,48.287,0,1,1,561.5,331.417Z" transform="translate(-311.445 -175.185)" fill="#3f3d56"/>
    <path id="Path_7" data-name="Path 7" d="M606.584,286.317a41.9,41.9,0,1,1-83.794,0c0-1.328.064-2.635.184-3.927a41.9,41.9,0,0,1,83.61,3.927Z" transform="translate(-314.634 -178.373)" fill="#e6e6e6"/>
    <path id="Path_8" data-name="Path 8" d="M588.527,296.078A9.976,9.976,0,0,0,584.643,293a37.737,37.737,0,0,0-5.837-1.917v-11.4a16.614,16.614,0,0,1,8.3,3.785l2.315-4.935a15.312,15.312,0,0,0-4.517-2.791,22.2,22.2,0,0,0-5.731-1.47v-5.78h-5.361v5.837a14.68,14.68,0,0,0-5.859,1.967,11.645,11.645,0,0,0-3.97,3.892,9.779,9.779,0,0,0-1.413,5.177A8.849,8.849,0,0,0,564.2,290.9a10.3,10.3,0,0,0,4.047,3.21,37.416,37.416,0,0,0,5.937,1.967v10.929a17.744,17.744,0,0,1-9.878-3.941l-2.315,4.942a17.455,17.455,0,0,0,5.283,3,24.26,24.26,0,0,0,6.54,1.363V318.1h5.361v-5.837a13.874,13.874,0,0,0,7.96-3.65,9.651,9.651,0,0,0,2.968-7.172A8.56,8.56,0,0,0,588.527,296.078Zm-14.344-6.2a10.3,10.3,0,0,1-3.572-1.917,3.778,3.778,0,0,1-1.264-2.968,4.776,4.776,0,0,1,1.292-3.416,6.535,6.535,0,0,1,3.544-1.839Zm7.989,15.111a6.077,6.077,0,0,1-3.366,1.754v-9.4a9.4,9.4,0,0,1,3.366,1.683,3.307,3.307,0,0,1,1.157,2.627,4.831,4.831,0,0,1-1.158,3.338Z" transform="translate(-325.997 -185.351)" fill="#2de38e"/>
    <path id="Path_9" data-name="Path 9" d="M413.085,404.879a4.987,4.987,0,0,1-4.811-3.7L405.6,391.042a4.974,4.974,0,0,1,3.533-6.072l84.462-22.319a4.982,4.982,0,0,1,6.072,3.54l2.268,8.585-.425.033a113.735,113.735,0,0,0-59.726,22.632l-.123.06-27.311,7.215A4.945,4.945,0,0,1,413.085,404.879Z" transform="translate(-280.614 -212.599)" fill="#2f2e41"/>
    <path id="Path_10" data-name="Path 10" d="M375.2,468.45a69.669,69.669,0,0,1-27.781-10.5,67.838,67.838,0,0,1-11.485-9.394c-3.428-3.5-6.708-7.471-8.406-12.128a17.965,17.965,0,0,1,.235-13.328,17.279,17.279,0,0,1,9.351-9.321,17.841,17.841,0,0,1,13.532-.02,12.135,12.135,0,0,1,4.945,3.981,8.121,8.121,0,0,1,1.286,2.669,5.448,5.448,0,0,1,.064,2.669,6.4,6.4,0,0,1-3.39,4.064,17.09,17.09,0,0,1-5.789,1.766c-2.031.277-4.949.529-6.581-1.1a3.317,3.317,0,0,1-.776-1.144,2.211,2.211,0,0,1-.122-1.035c-.024.154.1-.335.091-.316-.026.072-.138.249.021-.022a2.4,2.4,0,0,1,.165-.258c-.054.07-.172.186.039-.014a1.393,1.393,0,0,1,.649-.4c.1-.029.2-.051.3-.078.251-.068-.25,0,.007,0,.1,0,.2,0,.3-.005.251-.011-.248-.069-.007-.008.094.024.186.046.278.076.2.063-.142-.147-.006.01.159.184-.167-.179.014,0a3.279,3.279,0,0,1,.254.28,1.675,1.675,0,0,0,2.354,0,1.7,1.7,0,0,0,0-2.354c-1.641-2.035-4.884-1.532-6.544.188-2.118,2.193-1.279,5.669.781,7.583,2.332,2.166,5.634,2.317,8.634,1.954a21.174,21.174,0,0,0,7.292-2.061,10.224,10.224,0,0,0,4.988-5.388,9.355,9.355,0,0,0-.75-7.647c-2.648-4.979-8.132-7.531-13.552-7.974a21.17,21.17,0,0,0-15.494,5.086,21.413,21.413,0,0,0-7.022,14.256c-.473,5.678,1.73,11.192,4.942,15.775a60.1,60.1,0,0,0,11.915,12.323,72.768,72.768,0,0,0,30.4,14.338q1.983.41,3.987.7a1.72,1.72,0,0,0,2.048-1.163,1.677,1.677,0,0,0-1.163-2.048Z" transform="translate(-256.721 -226.116)" fill="#3f3d56"/>
    <path id="Path_11" data-name="Path 11" d="M598.42,390.772q-21.775-.307-43.412,1.105c-4.931.322-9.2,2.065-9.2,4.994,0,2.449,4.232,5.318,9.2,4.994q21.626-1.412,43.412-1.105C610.26,400.926,610.254,390.938,598.42,390.772Z" transform="translate(-321.307 -220.782)" fill="#ccc"/>
    <path id="Path_12" data-name="Path 12" d="M574,399.958c-1.569,0-38.422-.059-38.422-5.149S572.429,389.66,574,389.66s38.422.059,38.422,5.149S575.567,399.958,574,399.958Zm-36.98-5.149c1.008,1.543,14.555,3.729,36.98,3.729s35.972-2.185,36.981-3.729c-1.009-1.543-14.555-3.728-36.981-3.728s-35.973,2.185-36.981,3.728Z" transform="translate(-318.34 -220.476)" fill="#3f3d56"/>
    <path id="Path_13" data-name="Path 13" d="M754.28,558.315c8.158-.226,18.311-.51,26.133-6.224a20.069,20.069,0,0,0,7.9-14.986,13.5,13.5,0,0,0-4.591-11.088c-4.085-3.452-10.051-4.262-16.48-2.373l6.661-48.677-4.89-.67-7.831,57.226,4.083-1.874c4.734-2.171,11.232-3.276,15.27.136a8.674,8.674,0,0,1,2.845,7.145,15.169,15.169,0,0,1-5.876,11.173c-6.087,4.446-14.18,5.02-23.359,5.276Z" transform="translate(-381.698 -245.01)" fill="#3f3d56"/>
    <rect id="Rectangle_7" data-name="Rectangle 7" width="26.581" height="4.935" transform="translate(332.481 234.156)" fill="#3f3d56"/>
    <path id="Path_14" data-name="Path 14" d="M430.46,440.344a4.98,4.98,0,0,1-4.9-4.2l-1.623-10.355a4.976,4.976,0,0,1,4.142-5.681l86.3-13.522a4.976,4.976,0,0,1,5.68,4.141l1.622,10.355a4.976,4.976,0,0,1-4.141,5.681l-86.3,13.522A5.039,5.039,0,0,1,430.46,440.344Z" transform="translate(-285.96 -225.364)" fill="#2f2e41"/>
    <circle id="Ellipse_1" data-name="Ellipse 1" cx="36.216" cy="36.216" r="36.216" transform="translate(72.567 21.2)" fill="#2de38e"/>
    <path id="Path_15" data-name="Path 15" d="M409.964,235.844a8.589,8.589,0,0,0,3.1-1.9,5.776,5.776,0,0,0,1.6-4.6,3.886,3.886,0,0,0-1.784-2.957,5.025,5.025,0,0,0-4.791.035l-.2-14.137-1.42.02.237,16.62,1.081-.709c1.254-.821,3.055-1.416,4.351-.619a2.5,2.5,0,0,1,1.117,1.91,4.365,4.365,0,0,1-1.19,3.432c-1.539,1.528-3.818,2.039-6.419,2.508l.252,1.4A23.406,23.406,0,0,0,409.964,235.844Z" transform="translate(-280.676 -169.057)" fill="#2f2e41"/>
    <rect id="Rectangle_8" data-name="Rectangle 8" width="7.649" height="1.42" transform="matrix(0.989, -0.15, 0.15, 0.989, 134.276, 43.377)" fill="#2f2e41"/>
    <rect id="Rectangle_9" data-name="Rectangle 9" width="7.649" height="1.42" transform="matrix(0.989, -0.15, 0.15, 0.989, 110.404, 46.991)" fill="#2f2e41"/>
    <path id="Path_16" data-name="Path 16" d="M403.066,403.667a6.413,6.413,0,0,1-5.989-4.158l-24.97-66.871a33.043,33.043,0,0,1,19.375-42.467l20.3-7.581a6.361,6.361,0,0,1,4.884.17,6.272,6.272,0,0,1,3.32,3.541l46.255,87.333a6.392,6.392,0,0,1-3.733,8.264L405.3,403.261A6.372,6.372,0,0,1,403.066,403.667Z" transform="translate(-270.35 -189.32)" fill="#2f2e41"/>
    <path id="Path_17" data-name="Path 17" d="M420.158,284.712l45.894,61.373L435,285.357a5.737,5.737,0,0,0-7.349-3.441Z" transform="translate(-284.883 -189.143)" fill="#e6e6e6"/>
    <path id="Path_18" data-name="Path 18" d="M485.274,341.437l-81.944-5.278a9.856,9.856,0,1,1,1.267-19.671l81.944,5.278a4.615,4.615,0,0,1,4.31,4.9l-.674,10.46a4.616,4.616,0,0,1-4.9,4.31Z" transform="translate(-277.332 -199.258)" fill="#2de38e"/>
    <path id="Path_19" data-name="Path 19" d="M462.155,343.275q-.162,0-.325-.01h0l-67.288-4.334a4.97,4.97,0,0,1-4.641-5.28l1.151-17.865a4.971,4.971,0,0,1,5.28-4.641l67.288,4.334a4.976,4.976,0,0,1,4.641,5.28l-1.15,17.866a4.984,4.984,0,0,1-3.228,4.339,4.919,4.919,0,0,1-1.726.312Z" transform="translate(-276.109 -197.712)" fill="#2f2e41"/>
    <path id="Path_20" data-name="Path 20" d="M365.083,184.746c4.764-4.1,11.307-.432,16.771-1.074,5.227-.614,9.355-5.3,10.409-10.284,1.23-5.812-1.786-11.634-6.232-15.257-4.87-3.969-11.328-5.108-17.448-4.374-7.014.841-13.429,4.111-19.185,8.066a86.529,86.529,0,0,0-15.226,12.9c-4.084,4.51-7.544,9.887-8.649,15.956-1,5.516-.237,11.628,3.023,16.3a17.189,17.189,0,0,0,6.728,5.543c2.8,1.373,5.779,2.354,8.488,3.907,4.1,2.347,8.077,7.214,6.794,12.279a6.954,6.954,0,0,1-1.581,2.975c-.917,1.017-2.57-.327-1.651-1.347,1.614-1.792,1.55-4.181.69-6.32a11.556,11.556,0,0,0-5.137-5.648c-2.836-1.621-5.966-2.622-8.872-4.1a19.189,19.189,0,0,1-7.038-5.833c-3.478-4.834-4.519-11.125-3.73-16.944.854-6.3,4.089-12.02,8.145-16.816a83.861,83.861,0,0,1,15.376-13.605c5.944-4.259,12.51-7.859,19.777-9.161,6.3-1.129,13.126-.434,18.634,3,5.141,3.2,9.084,8.716,9.476,14.875a15.79,15.79,0,0,1-7.368,14.161,13.564,13.564,0,0,1-8.1,1.877c-3.026-.194-6.055-1.12-9.1-.863a6.349,6.349,0,0,0-3.741,1.511c-1.041.9-2.282-.838-1.249-1.726Z" transform="translate(-256.715 -151.412)" fill="#2f2e41"/>
    <path id="Path_21" data-name="Path 21" d="M754.786,747.9H230.508a.846.846,0,0,1,0-1.691H754.786a.846.846,0,0,1,0,1.691Z" transform="translate(-229.662 -323.831)" fill="#3f3d56"/>
  </g>
</svg>
